HIERARCHY
ROOT Hips
{
    OFFSET 0.000000 0.000000 0.000000
    CHANNELS 6 Xposition Yposition Zposition Zrotation Xrotation Yrotation
    JOINT Spine
    {
        OFFSET -0.000000 0.083210 0.000000
        CHANNELS 3 Zrotation Xrotation Yrotation
        JOINT Spine1
        {
            OFFSET -0.000000 0.256334 0.000000
            CHANNELS 3 Zrotation Xrotation Yrotation
            JOINT Neck
            {
                OFFSET -0.000000 0.275576 0.002912
                CHANNELS 3 Zrotation Xrotation Yrotation
                JOINT Head
                {
                    OFFSET -0.000000 0.157287 0.020295
                    CHANNELS 3 Zrotation Xrotation Yrotation
                    End Site
                    {
                        OFFSET -0.000000 0.202951 0.000000
                    }
                }
            }
            JOINT LeftShoulder
            {
                OFFSET 0.041044 0.235234 -0.000041
                CHANNELS 3 Zrotation Xrotation Yrotation
                JOINT LeftArm
                {
                    OFFSET 0.117964 0.000000 0.000000
                    CHANNELS 3 Zrotation Xrotation Yrotation
                    JOINT LeftForeArm
                    {
                        OFFSET 0.291248 0.000000 0.000000
                        CHANNELS 3 Zrotation Xrotation Yrotation
                        JOINT LeftHand
                        {
                            OFFSET 0.245673 0.000000 0.000000
                            CHANNELS 3 Zrotation Xrotation Yrotation
                            End Site
                            {
                                OFFSET 0.152213 0.000000 0.000000
                            }
                        }
                    }
                }
            }
            JOINT RightShoulder
            {
                OFFSET -0.040052 0.235234 -0.000041
                CHANNELS 3 Zrotation Xrotation Yrotation
                JOINT RightArm
                {
                    OFFSET -0.117964 0.000000 0.000000
                    CHANNELS 3 Zrotation Xrotation Yrotation
                    JOINT RightForeArm
                    {
                        OFFSET -0.291248 0.000000 0.000000
                        CHANNELS 3 Zrotation Xrotation Yrotation
                        JOINT RightHand
                        {
                            OFFSET -0.245673 0.000000 0.000000
                            CHANNELS 3 Zrotation Xrotation Yrotation
                            End Site
                            {
                                OFFSET -0.152213 0.000000 0.000000
                            }
                        }
                    }
                }
            }
        }
    }
    JOINT LeftUpLeg
    {
        OFFSET 0.101475 0.000000 0.000000
        CHANNELS 3 Zrotation Xrotation Yrotation
        JOINT LeftLeg
        {
            OFFSET -0.000000 -0.446535 0.000000
            CHANNELS 3 Zrotation Xrotation Yrotation
            JOINT LeftFoot
            {
                OFFSET -0.000000 -0.400037 0.000000
                CHANNELS 3 Zrotation Xrotation Yrotation
                JOINT LeftToeBase
                {
                    OFFSET -0.000000 -0.065959 0.152213
                    CHANNELS 3 Zrotation Xrotation Yrotation
                    End Site
                    {
                        OFFSET -0.000000 0.000000 0.040590
                    }
                }
            }
        }
    }
    JOINT RightUpLeg
    {
        OFFSET -0.101475 0.000000 0.000000
        CHANNELS 3 Zrotation Xrotation Yrotation
        JOINT RightLeg
        {
            OFFSET -0.000000 -0.446535 0.000000
            CHANNELS 3 Zrotation Xrotation Yrotation
            JOINT RightFoot
            {
                OFFSET -0.000000 -0.400037 0.000000
                CHANNELS 3 Zrotation Xrotation Yrotation
                JOINT RightToeBase
                {
                    OFFSET -0.000000 -0.065959 0.152213
                    CHANNELS 3 Zrotation Xrotation Yrotation
                    End Site
                    {
                        OFFSET -0.000000 0.000000 0.040590
                    }
                }
            }
        }
    }
}
MOTION
Frames:    11
Frame Time:    0.008333
-0.237229    0.887056    -0.840615    12.394090    19.452398    -20.017172    7.540709    22.529518    1.676090    -0.467862    -2.704026    1.034811    10.054985    -4.330369    -4.648102    -11.987103    -15.652633    -3.956682    -0.827208    8.992207    -15.569079    -53.913357    35.141674    -7.362205    32.548035    -21.502499    -67.055435    16.300079    -1.310137    -12.058925    -10.791323    -10.399536    27.099535    4.833247    -5.600020    0.225866    -22.411335    -32.031876    2.087019    4.510060    -31.232302    13.290987    21.730705    -44.652596    18.817049    -11.650149    27.162437    18.639545    -11.201859    -3.081713    -9.152536    -0.062136    -2.944814    1.030607    -31.735912    -19.302700    -12.077927    1.809777    23.026474    0.976766    19.521191    -23.075886    -10.462692    0.157869    -5.658459    2.106373    
-0.235834    0.886246    -0.836840    12.514813    19.656065    -19.605875    7.673487    22.347128    1.798970    -0.715104    -2.884660    1.072918    10.049106    -4.521095    -4.958855    -11.931671    -16.320663    -4.368586    -0.885656    9.113919    -15.375789    -53.732319    34.404415    -7.187094    32.367664    -21.142494    -67.310135    16.571075    -0.996407    -12.191871    -11.065341    -10.409223    26.833893    4.309086    -5.916720    0.393461    -22.288580    -30.502409    2.636826    2.524190    -29.825195    11.932747    21.715761    -45.192787    19.680374    -11.849908    28.416376    18.225584    -11.207515    -4.577178    -9.043965    -0.046606    -3.795201    0.881336    -31.853136    -18.747272    -11.725202    1.858497    22.477491    0.437871    19.211876    -23.194925    -10.809303    0.161014    -5.738350    2.128540    
-0.234414    0.885256    -0.832621    12.624760    19.804829    -19.232288    7.787268    22.183270    1.902617    -1.035930    -3.035865    1.101352    10.083696    -4.695858    -5.248933    -11.809213    -16.922215    -4.744859    -0.822971    9.109023    -15.134468    -53.706505    33.769547    -6.953271    32.351971    -20.755087    -67.363228    16.420412    -0.591270    -12.448150    -11.266883    -10.477371    26.640049    3.808292    -6.803438    0.479263    -21.649632    -28.619669    3.862999    0.548823    -27.924526    10.504627    21.689123    -45.661110    20.479511    -12.055840    29.755280    18.095676    -11.155501    -6.184682    -8.627713    -0.032073    -4.387733    0.672221    -31.973822    -18.145887    -11.475983    1.850681    21.958015    0.046357    18.911600    -23.330252    -11.116200    0.168526    -5.825297    2.205719    
-0.233073    0.884091    -0.828005    12.676730    19.917154    -18.864155    7.854339    21.996189    1.996253    -1.282741    -3.143692    1.124468    10.155497    -4.811739    -5.510127    -11.723666    -17.408291    -5.069949    -0.820860    9.134415    -14.938128    -53.696575    32.987041    -6.676343    32.193188    -20.296782    -67.441933    16.731413    -0.247171    -12.619289    -11.448444    -10.448022    26.537992    3.424515    -7.846785    0.599657    -21.093016    -26.416845    5.194455    -0.763675    -25.603373    9.363235    21.699293    -46.102688    21.140821    -12.367189    31.218702    18.185366    -10.493804    -7.917084    -7.534944    -0.030204    -4.424719    0.637357    -32.052338    -17.479959    -11.305933    1.826193    21.434288    -0.124379    18.553293    -23.499380    -11.507696    0.168597    -5.868557    2.195810    
-0.231834    0.882783    -0.823118    12.713936    20.006535    -18.603354    7.787223    21.826599    2.169205    -1.437673    -3.259246    1.167999    10.166499    -4.891016    -5.733741    -11.533030    -17.759808    -5.340385    -0.833587    9.214000    -14.704246    -53.594067    32.300892    -6.515180    32.184498    -19.903540    -67.342155    16.605928    0.123405    -12.704991    -11.622999    -10.205290    26.356503    3.097300    -8.715731    0.933634    -20.526018    -24.379391    6.597929    -2.113678    -23.422377    8.073615    21.786310    -46.488686    21.811760    -12.782825    32.771618    18.770889    -9.130340    -9.535422    -5.920035    -0.039385    -4.403314    0.827852    -32.095322    -16.861044    -11.149403    1.757952    20.950871    -0.120841    18.217072    -23.680792    -11.953551    0.173404    -5.860158    2.260560    
-0.230598    0.881187    -0.817788    12.704082    20.068277    -18.381256    7.671803    21.641495    2.385767    -1.576408    -3.358082    1.222993    10.226536    -4.973508    -5.950211    -11.286346    -17.914001    -5.575862    -0.757847    9.190901    -14.534981    -53.672066    31.604326    -6.291206    32.088135    -19.418234    -67.122704    16.680042    0.407144    -13.085700    -11.813403    -10.104315    26.149460    3.149524    -8.277585    1.401910    -20.346664    -22.458017    7.400888    -2.886411    -21.390518    7.103239    21.957253    -46.806194    22.320257    -13.338429    34.386765    19.945568    -7.498027    -11.026494    -3.954639    -0.045803    -4.391680    0.960706    -32.104233    -16.216152    -11.056804    1.667534    20.480831    -0.169440    17.940506    -23.801950    -12.228147    0.176774    -5.807593    2.318334    
-0.229414    0.879382    -0.812001    12.658114    20.085445    -18.216627    7.474210    21.471085    2.641764    -1.626013    -3.469720    1.288892    10.200396    -4.949774    -6.159260    -10.944247    -18.000126    -5.791047    -0.723530    9.228379    -14.400940    -53.668056    30.837681    -6.114755    31.844877    -18.857330    -66.973083    17.038767    0.694634    -13.212495    -12.112951    -9.915451    25.946100    3.381863    -7.338645    1.961923    -20.032215    -20.497210    8.113045    -3.147481    -19.306747    6.153831    22.183954    -46.978977    22.660795    -14.069286    35.923637    21.817133    -6.110256    -12.467366    -2.010103    -0.062627    -3.868228    1.198725    -32.078049    -15.540531    -10.930126    1.568215    20.014833    -0.127037    17.679619    -23.941399    -12.548479    0.177620    -5.651358    2.371790    
-0.228347    0.877296    -0.805932    12.550784    20.105705    -18.129690    7.242198    21.296951    2.964226    -1.770934    -3.579623    1.371697    10.445396    -4.956013    -6.382612    -10.663556    -17.975252    -5.989912    -0.524677    9.323575    -14.166166    -53.660381    30.138798    -6.166148    31.611786    -18.334724    -66.725845    17.026741    0.945936    -13.374626    -12.395196    -9.824866    25.688736    3.781729    -5.551523    2.574854    -19.345499    -18.567516    8.530066    -2.971952    -17.320839    5.630828    22.630688    -47.048527    23.078434    -14.914025    37.435097    23.987877    -4.949061    -13.722944    -0.434253    -0.072205    -3.819881    1.370998    -31.973715    -14.910401    -10.735877    1.461315    19.581581    -0.100249    17.449133    -24.058382    -12.833916    0.176255    -5.430036    2.415824    
-0.227372    0.874985    -0.799422    12.381946    20.098738    -18.084673    6.955076    21.093287    3.359769    -1.741832    -3.645792    1.481387    10.336028    -4.935429    -6.609428    -10.079147    -17.814449    -6.200059    -0.473616    9.281615    -14.142101    -53.755680    29.366154    -5.960959    31.275341    -17.772305    -66.419060    17.051073    1.129591    -13.572943    -12.976002    -9.464406    25.352173    3.919987    -4.514559    3.058491    -17.117393    -16.002384    9.838591    -3.487075    -14.706547    4.615922    23.151697    -46.951588    23.332596    -15.853352    38.722973    26.317801    -4.212432    -14.680328    0.766054    -0.070210    -4.146886    1.409459    -31.805967    -14.268600    -10.461178    1.352345    19.175688    -0.050363    17.236286    -24.192719    -13.149733    0.174363    -5.123007    2.480911    
-0.226522    0.872429    -0.792544    12.160075    20.080572    -18.058475    6.650187    20.880390    3.745259    -1.857869    -3.750431    1.581288    10.652545    -4.807091    -6.832313    -9.667238    -17.690556    -6.367043    -0.218624    9.334877    -13.989590    -53.805069    28.733225    -6.031943    30.893503    -17.314943    -66.065605    17.050911    1.174918    -13.650615    -13.494361    -8.705343    25.022530    4.271125    -2.401087    4.007867    -15.663764    -13.457975    9.965855    -2.078968    -12.186245    3.858669    23.673697    -46.675076    23.640610    -16.605639    39.865036    28.229147    -3.909773    -15.322107    1.272293    -0.088893    -4.518153    1.908682    -31.544203    -13.648186    -10.212379    1.132649    18.845371    -0.086583    17.063459    -24.292236    -13.288106    0.170833    -4.779301    2.538925    
-0.225931    0.869654    -0.785336    11.862924    20.018728    -17.982214    6.324675    20.660740    4.112383    -1.958878    -3.794514    1.675458    11.012546    -4.664589    -7.083460    -9.191875    -17.601677    -6.559300    0.095125    9.284317    -13.836303    -53.911076    28.217180    -6.114561    30.635197    -16.804792    -65.580605    16.962460    1.332787    -13.685567    -14.039157    -7.810010    24.589804    4.547249    0.499870    5.163907    -14.062607    -10.845197    9.983929    -1.547420    -9.663731    2.510116    24.171911    -46.276848    24.143110    -16.903429    40.778633    29.163860    -4.511902    -15.486891    1.424363    -0.076428    -5.365147    1.951325    -31.213985    -12.952857    -9.815109    0.964832    18.567236    0.209517    16.614311    -24.575920    -13.907487    0.163938    -4.450332    2.544935    
